# xmcd
#
# Track frame offsets:
#	150
#	14408
#	27308
#	43814
#	58538
#	74301
#	90493
#	105675
#	118172
#	134659
#	150533
#	165536
#	178168
#	194063
#	208523
#	224349
#
# Disc length: 3204 seconds
#
# Revision: 0
# Processed by: cddbd v1.5.2PL0 Copyright (c) Steve Scherf et al.
# Submitted via: EasyCDDAExtractor 16.0.6.1
#
DISCID=ed0c8210
DTITLE=Πάνου Πόλυ - Τραγούδια 45 στροφές-Πάνου Πόλυ 2
DYEAR=1998
DGENRE=Λαϊκή
TTITLE0=Πάνου Πόλυ-Χρηστάκης - Αγαπώ μόνο εσένα [Α. Τσαβάλα-Ν. Φατσέα]
TTITLE1=Πάνου Πόλυ - Έναν άντρα αγάπησα [Γιάννη Καραμπεσίνη]
TTITLE2=Πάνου Πόλυ-Χρηστάκης-Νικολαΐδης Απ. - Γυναίκα αμαρτωλή [Θ. Δερβενιώτη]
TTITLE3=Πάνου Πόλυ - Νοστάλγησα λίγη χαρά [Βασ. Καραπατάκη]
TTITLE4=Πάνου Πόλυ - Ζωή πια σε βαρέθηκα [Γιάννη Καραμπεσίνη-Α. Δημόγλου]
TTITLE5=Πάνου Πόλυ - Πέτα, καρδιά μου, πέτα [Απ. Καλδάρα]
TTITLE6=Πάνου Πόλυ-Χρηστάκης - Όπου γης και πατρίς [Χρ. Κολοκοτρώνη]
TTITLE7=Πάνου Πόλυ-Τρίο Μπελκάντο - Τι το θέλεις το μαντήλι [1960, Γ. Δέδε-Θ. 
TTITLE7=Τσόκα]
TTITLE8=Πάνου Πόλυ - Πού να πω τους καϋμούς μου [Απ. Καλδάρα]
TTITLE9=Πάνου Πόλυ - Περνούν οι μήνες σαν νερό [Στέλ. Μακρυδάκη]
TTITLE10=Πάνου Πόλυ - Εγώ εσένα αγαπώ [Γιάννη Καραμπεσίνη]
TTITLE11=Πάνου Πόλυ - Πες μου, πού πας [Στ. Τζουανάκου]
TTITLE12=Πάνου Πόλυ - Μού 'δωσαν ψεύτικες πληροφορίες [Στέλ. Μακρυδάκη]
TTITLE13=Πάνου Πόλυ-Χρηστάκης - Πάει, πάει το αγόρι μου [Θ. Σοφού]
TTITLE14=Πάνου Πόλυ - Βενετσιάνα [Γιώργου Λαύκα]
TTITLE15=Πάνου Πόλυ - Συγχώρεσέ με μάννα μου [Θ. Δερβενιώτη]
EXTD=
EXTT0=
EXTT1=
EXTT2=
EXTT3=
EXTT4=
EXTT5=
EXTT6=
EXTT7=
EXTT8=
EXTT9=
EXTT10=
EXTT11=
EXTT12=
EXTT13=
EXTT14=
EXTT15=
PLAYORDER=
